<?xml version="1.0" standalone="no"?>
<!DOCTYPE svg PUBLIC "-//W3C//DTD SVG 20010904//EN"
 "http://www.w3.org/TR/2001/REC-SVG-20010904/DTD/svg10.dtd">
<svg version="1.0" xmlns="http://www.w3.org/2000/svg"
 width="512.000000pt" height="512.000000pt" viewBox="0 0 512.000000 512.000000"
 preserveAspectRatio="xMidYMid meet">
<metadata>
Created by potrace 1.14, written by Peter Selinger 2001-2017
</metadata>
<g transform="translate(0.000000,512.000000) scale(0.100000,-0.100000)"
fill="#000000" stroke="none">
<path d="M2369 5096 c-2 -2 -33 -6 -69 -10 -36 -3 -90 -10 -120 -15 -30 -6
-66 -12 -80 -15 -205 -35 -491 -136 -700 -248 -229 -122 -429 -273 -630 -477
-277 -280 -478 -605 -598 -966 -73 -218 -110 -400 -127 -620 -12 -159 -23
-278 -35 -361 -10 -72 -6 -124 12 -161 15 -32 82 -73 118 -73 l25 0 0 158 c0
86 4 177 8 202 23 143 96 321 181 439 25 36 46 73 46 83 0 29 56 225 95 333
209 581 706 1071 1315 1295 100 37 322 95 400 105 30 4 58 9 61 11 13 8 215
18 351 17 836 -5 1624 -518 1983 -1288 81 -173 165 -452 180 -593 3 -31 8 -70
10 -87 2 -16 6 -66 10 -110 13 -168 25 -215 69 -263 30 -32 39 -36 92 -39 66
-4 96 7 127 49 19 25 20 41 18 200 -2 182 -3 198 -27 318 -115 580 -359 1052
-725 1405 -384 369 -892 608 -1494 700 -45 7 -490 17 -496 11z"/>
<path d="M2420 4497 c-3 -3 -34 -8 -70 -11 -348 -36 -711 -187 -985 -410 -98
-80 -248 -236 -322 -337 -105 -142 -156 -231 -248 -434 -10 -22 -20 -42 -21
-45 -1 -3 34 6 79 21 88 30 119 36 224 44 37 4 68 7 69 8 1 1 35 54 77 119
137 211 269 354 447 480 166 118 348 196 553 239 209 44 562 29 762 -32 131
-39 206 -68 310 -120 359 -178 636 -482 790 -868 50 -125 96 -287 111 -391 3
-19 7 -42 9 -50 13 -45 20 -167 20 -340 0 -226 -11 -340 -50 -540 -9 -41 -17
-84 -19 -95 -57 -291 -186 -649 -366 -1018 -80 -164 -91 -207 -66 -258 19 -41
89 -89 129 -89 39 0 87 25 115 61 26 32 178 327 206 399 10 25 24 59 31 75 77
172 202 579 230 745 3 19 8 42 10 50 2 8 7 29 10 45 3 17 7 41 9 55 6 28 32
222 40 285 27 223 27 637 0 769 -2 12 -6 32 -9 46 -11 58 -15 77 -35 153 -95
367 -330 736 -625 982 -33 28 -62 53 -65 56 -17 21 -231 155 -315 198 -282
141 -518 200 -840 207 -105 3 -193 3 -195 1z"/>
<path d="M2469 3886 c-2 -2 -34 -6 -70 -10 -271 -25 -568 -171 -759 -372 -71
-76 -163 -194 -175 -227 -4 -9 15 -22 63 -40 38 -15 99 -47 135 -71 l67 -44
29 41 c100 144 290 290 465 358 116 45 213 61 356 61 328 -1 593 -125 801
-374 159 -191 244 -445 243 -728 -1 -66 -14 -313 -18 -338 -2 -9 -7 -44 -10
-77 -4 -33 -9 -67 -11 -75 -2 -8 -7 -31 -10 -50 -72 -431 -246 -867 -499
-1250 -72 -109 -238 -336 -256 -350 -3 -3 -25 -30 -48 -61 -67 -89 -68 -140
-6 -209 80 -88 154 -74 260 47 256 293 518 738 659 1118 57 154 129 396 148
505 3 14 8 36 11 50 15 65 53 322 63 420 10 108 10 406 1 485 -10 83 -15 106
-44 212 -137 511 -546 883 -1059 965 -63 10 -328 21 -336 14z"/>
<path d="M2489 3296 c-2 -2 -24 -7 -49 -10 -175 -24 -339 -133 -449 -297 -40
-60 -50 -92 -32 -103 13 -8 77 -144 100 -213 20 -60 27 -88 37 -156 15 -97 19
-94 49 39 16 70 43 158 61 195 65 135 201 233 340 245 229 20 411 -115 464
-345 13 -54 16 -202 6 -301 -3 -30 -8 -82 -12 -115 -23 -235 -99 -540 -192
-765 -28 -68 -126 -267 -165 -335 -40 -70 -93 -147 -166 -240 l-70 -90 -1
-235 0 -234 71 74 c314 332 563 758 699 1195 30 98 85 319 94 375 3 19 12 78
20 130 20 128 26 189 32 360 6 133 3 162 -21 280 -3 14 -21 57 -39 96 -109
232 -289 382 -527 440 -28 7 -244 16 -250 10z"/>
<path d="M990 3155 c-291 -61 -512 -247 -620 -520 -40 -102 -52 -165 -56 -310
-3 -111 -1 -136 15 -171 29 -64 110 -114 184 -114 50 0 115 38 144 83 23 37
26 54 33 186 5 81 14 160 20 176 36 87 60 126 115 180 94 95 217 142 343 132
187 -15 337 -138 394 -322 20 -63 22 -94 23 -325 1 -140 2 -261 3 -267 2 -10
47 -13 187 -13 l185 1 0 262 c0 144 -5 294 -10 332 -45 316 -275 579 -588 671
-101 30 -279 39 -372 19z"/>
<path d="M2515 2682 c-73 -24 -92 -67 -100 -222 -8 -153 -15 -209 -50 -395 -9
-46 -55 -205 -76 -256 l-17 -46 29 -34 c66 -75 95 -159 98 -289 1 -47 3 -86 4
-87 9 -8 157 279 183 356 38 109 90 312 100 386 3 28 7 52 9 55 2 3 6 30 10
60 3 30 8 62 10 70 8 32 19 178 18 237 -2 84 -24 127 -77 153 -41 20 -101 25
-141 12z"/>
<path d="M215 1693 c-81 -20 -145 -84 -171 -169 -21 -70 -20 -1259 1 -1330 19
-63 69 -122 131 -154 l49 -24 910 0 c1005 0 941 -4 1019 64 20 18 47 52 59 74
22 41 22 43 24 699 3 650 2 659 -18 700 -29 58 -76 105 -129 130 -45 20 -53
20 -938 21 -643 1 -905 -2 -937 -11z m1049 -497 c139 -81 167 -240 66 -373
-41 -55 -41 -59 -14 -190 18 -87 14 -116 -18 -129 -18 -8 -193 -11 -301 -5
-37 2 -42 43 -17 166 l24 115 -31 37 c-51 64 -66 102 -67 173 0 54 4 73 27
112 68 117 219 160 331 94z"/>
</g>
</svg>
